<svg xmlns="http://www.w3.org/2000/svg" width="808.135" height="215.6" viewBox="0 0 808.135 215.6">
  <g id="Group_4408" data-name="Group 4408" transform="translate(-395.435 -402.129)">
    <g id="Group_5" data-name="Group 5" transform="translate(395.435 402.129)">
      <g id="Group_1" data-name="Group 1" transform="translate(472.957 0)">
        <path id="Path_1" data-name="Path 1" d="M1125.292,462.005l-6.562-7.757,22.293-18.862-22.486-21.081,6.949-7.413,26.646,24.983a5.08,5.08,0,0,1-.193,7.584Z" transform="translate(-1069.559 -406.893)" fill="#444"/>
        <path id="Path_2" data-name="Path 2" d="M1106.965,462.005,1080.32,439.46a5.083,5.083,0,0,1-.194-7.584l26.645-24.983,6.951,7.413-22.485,21.081,22.291,18.862Z" transform="translate(-1078.522 -406.893)" fill="#444"/>
      </g>
      <g id="Group_4" data-name="Group 4" transform="translate(0 74.164)">
        <g id="Group_2" data-name="Group 2" transform="translate(115.25 1.418)">
          <path id="Path_3" data-name="Path 3" d="M612.849,621.72q-18.544,0-33.02-6.1a57.864,57.864,0,0,1-23.367-17.271l21.843-18.542a44.81,44.81,0,0,0,17.271,12.064,54.434,54.434,0,0,0,19.557,3.683q7.87,0,12.7-3.555a11.61,11.61,0,0,0,4.827-9.906,10.419,10.419,0,0,0-4.573-8.89q-4.571-3.048-21.843-7.62-25.657-6.6-36.321-18.033-9.4-10.156-9.4-25.145a32.862,32.862,0,0,1,7.111-20.955,47.558,47.558,0,0,1,18.8-14.1,63.019,63.019,0,0,1,25.4-5.08,79.335,79.335,0,0,1,29.718,5.587,66.711,66.711,0,0,1,23.367,15.24l-18.8,20.573a65.6,65.6,0,0,0-16.383-11.049q-9.275-4.44-17.144-4.445-18.287,0-18.287,12.7a11.667,11.667,0,0,0,5.588,9.652q5.078,3.559,23.113,8.381,24.127,6.353,34.034,16.764,8.632,8.9,8.636,23.621a36.339,36.339,0,0,1-6.985,21.843,46.824,46.824,0,0,1-18.923,15.113A64.048,64.048,0,0,1,612.849,621.72Z" transform="translate(-556.463 -482.024)" fill="#045de8"/>
          <path id="Path_4" data-name="Path 4" d="M798.225,621.619q-21.591,0-37.845-8.89a64.233,64.233,0,0,1-25.272-24.384q-9.019-15.488-9.017-35.559,0-20.823,8.763-36.7a65.258,65.258,0,0,1,24.129-25.019q15.365-9.144,35.432-9.144a60.759,60.759,0,0,1,54.735,32.511q8,14.989,7.493,34.289l-.254,10.922H759.872q2.792,14.479,13.843,22.859t28.065,8.382a47.254,47.254,0,0,0,16.637-2.793q7.489-2.793,16.129-9.906l16.763,23.367a78.382,78.382,0,0,1-25.019,14.859A80.619,80.619,0,0,1,798.225,621.619Zm-3.556-109.725q-28.705,0-34.543,25.907h63.5v-1.016a24.826,24.826,0,0,0-9.016-17.907A29.854,29.854,0,0,0,794.669,511.894Z" transform="translate(-604.686 -481.923)" fill="#045de8"/>
          <path id="Path_5" data-name="Path 5" d="M939.019,622.042V485.072h33.526l.509,22.1a54.949,54.949,0,0,1,17.4-17.906,41.185,41.185,0,0,1,22.732-6.984,53.837,53.837,0,0,1,8.508.635,37.668,37.668,0,0,1,6.731,1.65l-9.4,38.1a28.817,28.817,0,0,0-7.112-2.54,37.79,37.79,0,0,0-8.635-1.016,28.476,28.476,0,0,0-20.955,8.508q-8.513,8.513-8.509,21.462v72.964Z" transform="translate(-665.218 -482.024)" fill="#045de8"/>
          <path id="Path_6" data-name="Path 6" d="M1090.906,623.152V486.182h34.8v136.97Z" transform="translate(-708.397 -483.134)" fill="#045de8"/>
          <path id="Path_7" data-name="Path 7" d="M1246.789,621.619q-21.592,0-37.845-8.89a64.233,64.233,0,0,1-25.272-24.384q-9.019-15.488-9.016-35.559,0-20.823,8.762-36.7a65.268,65.268,0,0,1,24.13-25.019q15.365-9.144,35.432-9.144a60.76,60.76,0,0,1,54.735,32.511q8,14.989,7.494,34.289l-.254,10.922h-96.517q2.791,14.479,13.842,22.859t28.066,8.382a47.255,47.255,0,0,0,16.636-2.793q7.49-2.793,16.128-9.906l16.764,23.367a78.381,78.381,0,0,1-25.019,14.859A80.622,80.622,0,0,1,1246.789,621.619Zm-3.556-109.725q-28.706,0-34.543,25.907h63.5v-1.016a24.823,24.823,0,0,0-9.017-17.907A29.853,29.853,0,0,0,1243.233,511.894Z" transform="translate(-732.206 -481.923)" fill="#045de8"/>
          <path id="Path_8" data-name="Path 8" d="M1428.353,621.72q-18.543,0-33.019-6.1a57.867,57.867,0,0,1-23.367-17.271l21.843-18.542a44.794,44.794,0,0,0,17.272,12.064,54.428,54.428,0,0,0,19.557,3.683q7.87,0,12.7-3.555a11.61,11.61,0,0,0,4.826-9.906,10.417,10.417,0,0,0-4.573-8.89q-4.57-3.048-21.843-7.62-25.657-6.6-36.32-18.033-9.4-10.156-9.4-25.145a32.864,32.864,0,0,1,7.112-20.955,47.561,47.561,0,0,1,18.8-14.1,63.02,63.02,0,0,1,25.4-5.08,79.341,79.341,0,0,1,29.718,5.587,66.712,66.712,0,0,1,23.367,15.24l-18.8,20.573a65.618,65.618,0,0,0-16.382-11.049q-9.274-4.44-17.145-4.445-18.286,0-18.287,12.7a11.669,11.669,0,0,0,5.587,9.652q5.079,3.559,23.113,8.381,24.128,6.353,34.036,16.764,8.632,8.9,8.636,23.621a36.344,36.344,0,0,1-6.984,21.843,46.826,46.826,0,0,1-18.924,15.113A64.044,64.044,0,0,1,1428.353,621.72Z" transform="translate(-788.298 -482.024)" fill="#045de8"/>
        </g>
        <g id="Group_3" data-name="Group 3">
          <path id="Path_9" data-name="Path 9" d="M451.994,571.924a39.851,39.851,0,0,1-15.266,3.327,36.7,36.7,0,0,1-20.549-6.165,45.957,45.957,0,0,1-15.069-16.341,44.621,44.621,0,0,1-5.676-22.115,50.232,50.232,0,0,1,6.752-25.833,49.067,49.067,0,0,1,18.494-18.2,55.141,55.141,0,0,1,52.156-.2,51.075,51.075,0,0,1,18.592,17.32,43.269,43.269,0,0,1,6.947,23.778,80.082,80.082,0,0,1-5.088,28.279,294.7,294.7,0,0,1-13.7,30.432L462.17,620.263H429.683m15.656-72.411a19.041,19.041,0,0,0,14.189-5.676,18.83,18.83,0,0,0,5.578-13.7q0-8.806-5.48-14.482t-14.287-5.676a18.1,18.1,0,0,0-13.6,5.577q-5.385,5.578-5.381,14.385a19.443,19.443,0,0,0,5.479,13.7A17.738,17.738,0,0,0,445.34,547.853Z" transform="translate(-395.435 -479.942)" fill="#045de8"/>
        </g>
      </g>
    </g>
  </g>
</svg>
