<svg xmlns="http://www.w3.org/2000/svg" version="1.1" xmlns:xlink="http://www.w3.org/1999/xlink" xmlns:svgjs="http://svgjs.dev/svgjs" width="2880" height="1556" preserveAspectRatio="none" viewBox="0 0 2880 1556">
    <g mask="url(&quot;#SvgjsMask9085&quot;)" fill="none">
        <rect width="2880" height="1556" x="0" y="0" fill="rgba(5, 8, 22, 1)"></rect>
        <g mask="url(&quot;#SvgjsMask9087&quot;)">
            <path d="M1687.5 652.5L1732.5 697.5L1777.5 697.5L1822.5 697.5L1867.5 697.5L1912.5 697.5L1957.5 697.5L2002.5 697.5L2047.5 697.5L2092.5 697.5L2137.5 742.5L2182.5 742.5L2227.5 742.5L2272.5 742.5L2317.5 697.5L2362.5 697.5L2407.5 697.5L2452.5 697.5L2497.5 697.5L2542.5 697.5L2587.5 652.5L2632.5 652.5M1192.5 652.5L1237.5 697.5L1282.5 697.5L1327.5 697.5L1372.5 652.5M922.5 697.5L967.5 742.5L1012.5 742.5M1147.5 697.5L1192.5 697.5L1237.5 742.5L1282.5 742.5L1327.5 742.5L1372.5 742.5L1417.5 742.5L1462.5 742.5L1507.5 742.5L1552.5 742.5L1597.5 742.5L1642.5 742.5L1687.5 787.5L1732.5 787.5L1777.5 787.5M2092.5 652.5L2137.5 607.5M2137.5 652.5L2182.5 697.5L2227.5 697.5L2272.5 697.5M2047.5 652.5L2092.5 607.5M2182.5 652.5L2227.5 607.5L2272.5 607.5M1237.5 652.5L1282.5 607.5M2317.5 607.5L2362.5 652.5L2407.5 652.5L2452.5 652.5L2497.5 652.5M1507.5 652.5L1552.5 697.5L1597.5 697.5L1642.5 697.5L1687.5 742.5L1732.5 742.5L1777.5 742.5L1822.5 742.5L1867.5 742.5L1912.5 742.5L1957.5 742.5L2002.5 742.5L2047.5 742.5L2092.5 742.5L2137.5 787.5L2182.5 787.5L2227.5 787.5M742.5 742.5L787.5 787.5L832.5 787.5L877.5 787.5L922.5 787.5L967.5 787.5L1012.5 787.5L1057.5 787.5L1102.5 787.5L1147.5 787.5L1192.5 787.5M562.5 742.5L607.5 787.5M1102.5 697.5L1147.5 742.5L1192.5 742.5M-22.5 787.5L22.5 787.5L67.5 787.5L112.5 787.5L157.5 787.5L202.5 787.5L247.5 787.5L292.5 787.5L337.5 787.5L382.5 742.5L427.5 742.5L472.5 742.5L517.5 742.5L562.5 742.5L607.5 742.5L652.5 742.5L697.5 742.5L742.5 742.5L787.5 742.5L832.5 742.5L877.5 742.5L922.5 697.5L967.5 697.5L1012.5 697.5L1057.5 697.5L1102.5 697.5L1147.5 697.5L1192.5 652.5L1237.5 652.5L1282.5 652.5L1327.5 607.5L1372.5 607.5L1417.5 652.5L1462.5 652.5L1507.5 652.5L1552.5 652.5L1597.5 652.5L1642.5 652.5L1687.5 652.5L1732.5 652.5L1777.5 652.5L1822.5 652.5L1867.5 652.5L1912.5 652.5L1957.5 652.5L2002.5 652.5L2047.5 652.5L2092.5 652.5L2137.5 652.5L2182.5 652.5L2227.5 652.5L2272.5 652.5L2317.5 607.5L2362.5 607.5L2407.5 607.5L2452.5 607.5L2497.5 607.5" stroke="url(&quot;#SvgjsLinearGradient9086&quot;)" stroke-width="7.5"></path>
            <path d="M2486.25 607.5 a11.25 11.25 0 1 0 22.5 0 a11.25 11.25 0 1 0 -22.5 0zM2621.25 652.5 a11.25 11.25 0 1 0 22.5 0 a11.25 11.25 0 1 0 -22.5 0zM1361.25 652.5 a11.25 11.25 0 1 0 22.5 0 a11.25 11.25 0 1 0 -22.5 0zM1001.25 742.5 a11.25 11.25 0 1 0 22.5 0 a11.25 11.25 0 1 0 -22.5 0zM1766.25 787.5 a11.25 11.25 0 1 0 22.5 0 a11.25 11.25 0 1 0 -22.5 0zM2126.25 607.5 a11.25 11.25 0 1 0 22.5 0 a11.25 11.25 0 1 0 -22.5 0zM2261.25 697.5 a11.25 11.25 0 1 0 22.5 0 a11.25 11.25 0 1 0 -22.5 0zM2081.25 607.5 a11.25 11.25 0 1 0 22.5 0 a11.25 11.25 0 1 0 -22.5 0zM2261.25 607.5 a11.25 11.25 0 1 0 22.5 0 a11.25 11.25 0 1 0 -22.5 0zM1271.25 607.5 a11.25 11.25 0 1 0 22.5 0 a11.25 11.25 0 1 0 -22.5 0zM2486.25 652.5 a11.25 11.25 0 1 0 22.5 0 a11.25 11.25 0 1 0 -22.5 0zM2216.25 787.5 a11.25 11.25 0 1 0 22.5 0 a11.25 11.25 0 1 0 -22.5 0zM1181.25 787.5 a11.25 11.25 0 1 0 22.5 0 a11.25 11.25 0 1 0 -22.5 0zM596.25 787.5 a11.25 11.25 0 1 0 22.5 0 a11.25 11.25 0 1 0 -22.5 0zM1181.25 742.5 a11.25 11.25 0 1 0 22.5 0 a11.25 11.25 0 1 0 -22.5 0z" fill="url(&quot;#SvgjsLinearGradient9086&quot;)"></path>
            <path d="M832.5 697.5L877.5 652.5L922.5 607.5L967.5 607.5L1012.5 607.5M1057.5 652.5L1102.5 607.5L1147.5 607.5M697.5 697.5L742.5 652.5L787.5 652.5L832.5 652.5L877.5 607.5M2407.5 562.5L2452.5 517.5L2497.5 517.5M2002.5 562.5L2047.5 607.5M1777.5 607.5L1822.5 562.5L1867.5 562.5M1507.5 562.5L1552.5 607.5L1597.5 607.5M1192.5 607.5L1237.5 607.5M1642.5 607.5L1687.5 562.5L1732.5 562.5L1777.5 562.5L1822.5 517.5L1867.5 472.5L1912.5 472.5L1957.5 472.5L2002.5 472.5L2047.5 472.5M1552.5 562.5L1597.5 517.5L1642.5 517.5L1687.5 517.5L1732.5 517.5M2137.5 562.5L2182.5 517.5M1462.5 562.5L1507.5 607.5M2092.5 562.5L2137.5 517.5L2182.5 472.5M2317.5 562.5L2362.5 517.5L2407.5 472.5L2452.5 472.5L2497.5 472.5L2542.5 472.5L2587.5 517.5M-22.5 742.5L22.5 742.5L67.5 742.5L112.5 742.5L157.5 742.5L202.5 742.5L247.5 742.5L292.5 742.5L337.5 742.5L382.5 697.5L427.5 697.5L472.5 697.5L517.5 697.5L562.5 697.5L607.5 697.5L652.5 697.5L697.5 697.5L742.5 697.5L787.5 697.5L832.5 697.5L877.5 697.5L922.5 652.5L967.5 652.5L1012.5 652.5L1057.5 652.5L1102.5 652.5L1147.5 652.5L1192.5 607.5L1237.5 562.5L1282.5 562.5L1327.5 562.5L1372.5 562.5L1417.5 562.5L1462.5 562.5L1507.5 562.5L1552.5 562.5L1597.5 562.5L1642.5 607.5L1687.5 607.5L1732.5 607.5L1777.5 607.5L1822.5 607.5L1867.5 607.5L1912.5 607.5L1957.5 607.5L2002.5 562.5L2047.5 562.5L2092.5 562.5L2137.5 562.5L2182.5 562.5L2227.5 562.5L2272.5 562.5L2317.5 562.5L2362.5 562.5L2407.5 562.5L2452.5 562.5" stroke="url(&quot;#SvgjsLinearGradient9086&quot;)" stroke-width="7.5"></path>
            <path d="M2441.25 562.5 a11.25 11.25 0 1 0 22.5 0 a11.25 11.25 0 1 0 -22.5 0zM1001.25 607.5 a11.25 11.25 0 1 0 22.5 0 a11.25 11.25 0 1 0 -22.5 0zM1136.25 607.5 a11.25 11.25 0 1 0 22.5 0 a11.25 11.25 0 1 0 -22.5 0zM866.25 607.5 a11.25 11.25 0 1 0 22.5 0 a11.25 11.25 0 1 0 -22.5 0zM2486.25 517.5 a11.25 11.25 0 1 0 22.5 0 a11.25 11.25 0 1 0 -22.5 0zM2036.25 607.5 a11.25 11.25 0 1 0 22.5 0 a11.25 11.25 0 1 0 -22.5 0zM1856.25 562.5 a11.25 11.25 0 1 0 22.5 0 a11.25 11.25 0 1 0 -22.5 0zM1586.25 607.5 a11.25 11.25 0 1 0 22.5 0 a11.25 11.25 0 1 0 -22.5 0zM1226.25 607.5 a11.25 11.25 0 1 0 22.5 0 a11.25 11.25 0 1 0 -22.5 0zM2036.25 472.5 a11.25 11.25 0 1 0 22.5 0 a11.25 11.25 0 1 0 -22.5 0zM1721.25 517.5 a11.25 11.25 0 1 0 22.5 0 a11.25 11.25 0 1 0 -22.5 0zM2171.25 517.5 a11.25 11.25 0 1 0 22.5 0 a11.25 11.25 0 1 0 -22.5 0zM1496.25 607.5 a11.25 11.25 0 1 0 22.5 0 a11.25 11.25 0 1 0 -22.5 0zM2171.25 472.5 a11.25 11.25 0 1 0 22.5 0 a11.25 11.25 0 1 0 -22.5 0zM2576.25 517.5 a11.25 11.25 0 1 0 22.5 0 a11.25 11.25 0 1 0 -22.5 0z" fill="url(&quot;#SvgjsLinearGradient9086&quot;)"></path>
            <path d="M1687.5 967.5L1732.5 922.5L1777.5 922.5L1822.5 922.5L1867.5 922.5M1507.5 967.5L1552.5 922.5L1597.5 922.5L1642.5 922.5L1687.5 922.5L1732.5 877.5M1057.5 922.5L1102.5 877.5L1147.5 877.5L1192.5 877.5L1237.5 877.5L1282.5 877.5L1327.5 877.5L1372.5 877.5L1417.5 877.5M2092.5 967.5L2137.5 922.5L2182.5 922.5L2227.5 922.5M877.5 877.5L922.5 832.5L967.5 832.5L1012.5 832.5L1057.5 832.5L1102.5 832.5L1147.5 832.5L1192.5 832.5L1237.5 832.5M1327.5 967.5L1372.5 922.5L1417.5 922.5L1462.5 922.5L1507.5 922.5L1552.5 877.5L1597.5 877.5M2002.5 967.5L2047.5 922.5L2092.5 922.5L2137.5 877.5L2182.5 877.5L2227.5 877.5L2272.5 877.5L2317.5 877.5L2362.5 877.5L2407.5 877.5L2452.5 877.5M157.5 832.5L202.5 877.5L247.5 877.5M787.5 877.5L832.5 922.5L877.5 922.5M832.5 877.5L877.5 832.5M1237.5 967.5L1282.5 922.5M652.5 877.5L697.5 832.5L742.5 832.5L787.5 832.5L832.5 832.5M-22.5 832.5L22.5 832.5L67.5 832.5L112.5 832.5L157.5 832.5L202.5 832.5L247.5 832.5L292.5 832.5L337.5 832.5L382.5 832.5L427.5 832.5L472.5 877.5L517.5 877.5L562.5 877.5L607.5 877.5L652.5 877.5L697.5 877.5L742.5 877.5L787.5 877.5L832.5 877.5L877.5 877.5L922.5 877.5L967.5 877.5L1012.5 877.5L1057.5 922.5L1102.5 922.5L1147.5 922.5L1192.5 922.5L1237.5 967.5L1282.5 967.5L1327.5 967.5L1372.5 967.5L1417.5 967.5L1462.5 967.5L1507.5 967.5L1552.5 967.5L1597.5 967.5L1642.5 967.5L1687.5 967.5L1732.5 967.5L1777.5 967.5L1822.5 967.5L1867.5 967.5L1912.5 967.5L1957.5 967.5L2002.5 967.5L2047.5 967.5L2092.5 967.5L2137.5 967.5L2182.5 967.5L2227.5 967.5" stroke="url(&quot;#SvgjsLinearGradient9086&quot;)" stroke-width="7.5"></path>
            <path d="M2216.25 967.5 a11.25 11.25 0 1 0 22.5 0 a11.25 11.25 0 1 0 -22.5 0zM1856.25 922.5 a11.25 11.25 0 1 0 22.5 0 a11.25 11.25 0 1 0 -22.5 0zM1721.25 877.5 a11.25 11.25 0 1 0 22.5 0 a11.25 11.25 0 1 0 -22.5 0zM1406.25 877.5 a11.25 11.25 0 1 0 22.5 0 a11.25 11.25 0 1 0 -22.5 0zM2216.25 922.5 a11.25 11.25 0 1 0 22.5 0 a11.25 11.25 0 1 0 -22.5 0zM1226.25 832.5 a11.25 11.25 0 1 0 22.5 0 a11.25 11.25 0 1 0 -22.5 0zM1586.25 877.5 a11.25 11.25 0 1 0 22.5 0 a11.25 11.25 0 1 0 -22.5 0zM2441.25 877.5 a11.25 11.25 0 1 0 22.5 0 a11.25 11.25 0 1 0 -22.5 0zM236.25 877.5 a11.25 11.25 0 1 0 22.5 0 a11.25 11.25 0 1 0 -22.5 0zM866.25 922.5 a11.25 11.25 0 1 0 22.5 0 a11.25 11.25 0 1 0 -22.5 0zM866.25 832.5 a11.25 11.25 0 1 0 22.5 0 a11.25 11.25 0 1 0 -22.5 0zM1271.25 922.5 a11.25 11.25 0 1 0 22.5 0 a11.25 11.25 0 1 0 -22.5 0zM821.25 832.5 a11.25 11.25 0 1 0 22.5 0 a11.25 11.25 0 1 0 -22.5 0z" fill="url(&quot;#SvgjsLinearGradient9086&quot;)"></path>
            <path d="M652.5 607.5L697.5 652.5M562.5 652.5L607.5 652.5L652.5 652.5M-22.5 697.5L22.5 697.5L67.5 697.5L112.5 697.5L157.5 697.5L202.5 697.5L247.5 697.5L292.5 697.5L337.5 697.5L382.5 652.5L427.5 652.5L472.5 652.5L517.5 652.5L562.5 652.5L607.5 607.5L652.5 607.5L697.5 607.5L742.5 607.5L787.5 607.5" stroke="url(&quot;#SvgjsLinearGradient9086&quot;)" stroke-width="7.5"></path>
            <path d="M776.25 607.5 a11.25 11.25 0 1 0 22.5 0 a11.25 11.25 0 1 0 -22.5 0zM686.25 652.5 a11.25 11.25 0 1 0 22.5 0 a11.25 11.25 0 1 0 -22.5 0zM641.25 652.5 a11.25 11.25 0 1 0 22.5 0 a11.25 11.25 0 1 0 -22.5 0z" fill="url(&quot;#SvgjsLinearGradient9086&quot;)"></path>
            <path d="M337.5 922.5L382.5 877.5L427.5 877.5M112.5 877.5L157.5 877.5M-22.5 877.5L22.5 877.5L67.5 877.5L112.5 877.5L157.5 922.5L202.5 922.5L247.5 922.5L292.5 922.5L337.5 922.5L382.5 922.5L427.5 922.5L472.5 922.5L517.5 922.5" stroke="url(&quot;#SvgjsLinearGradient9086&quot;)" stroke-width="7.5"></path>
            <path d="M506.25 922.5 a11.25 11.25 0 1 0 22.5 0 a11.25 11.25 0 1 0 -22.5 0zM416.25 877.5 a11.25 11.25 0 1 0 22.5 0 a11.25 11.25 0 1 0 -22.5 0zM146.25 877.5 a11.25 11.25 0 1 0 22.5 0 a11.25 11.25 0 1 0 -22.5 0z" fill="url(&quot;#SvgjsLinearGradient9086&quot;)"></path>
            <path d="M1957.5 427.5L2002.5 382.5L2047.5 337.5L2092.5 337.5M1102.5 562.5L1147.5 517.5L1192.5 517.5M1687.5 427.5L1732.5 472.5L1777.5 472.5L1822.5 472.5M1822.5 427.5L1867.5 382.5L1912.5 382.5L1957.5 382.5L2002.5 337.5L2047.5 292.5L2092.5 292.5M1372.5 517.5L1417.5 517.5L1462.5 517.5L1507.5 517.5L1552.5 517.5M2002.5 427.5L2047.5 427.5L2092.5 427.5L2137.5 427.5L2182.5 427.5L2227.5 427.5M1012.5 562.5L1057.5 517.5L1102.5 517.5M2182.5 382.5L2227.5 337.5M1777.5 427.5L1822.5 382.5L1867.5 337.5L1912.5 337.5M1642.5 427.5L1687.5 472.5M2137.5 382.5L2182.5 337.5L2227.5 292.5L2272.5 292.5L2317.5 337.5L2362.5 337.5L2407.5 337.5L2452.5 292.5L2497.5 292.5M-22.5 652.5L22.5 652.5L67.5 652.5L112.5 652.5L157.5 652.5L202.5 652.5L247.5 652.5L292.5 652.5L337.5 652.5L382.5 607.5L427.5 607.5L472.5 607.5L517.5 607.5L562.5 607.5L607.5 562.5L652.5 562.5L697.5 562.5L742.5 562.5L787.5 562.5L832.5 562.5L877.5 562.5L922.5 562.5L967.5 562.5L1012.5 562.5L1057.5 562.5L1102.5 562.5L1147.5 562.5L1192.5 562.5L1237.5 517.5L1282.5 517.5L1327.5 517.5L1372.5 517.5L1417.5 472.5L1462.5 472.5L1507.5 472.5L1552.5 472.5L1597.5 472.5L1642.5 427.5L1687.5 427.5L1732.5 427.5L1777.5 427.5L1822.5 427.5L1867.5 427.5L1912.5 427.5L1957.5 427.5L2002.5 427.5L2047.5 382.5L2092.5 382.5L2137.5 382.5L2182.5 382.5L2227.5 382.5" stroke="url(&quot;#SvgjsLinearGradient9086&quot;)" stroke-width="7.5"></path>
            <path d="M2216.25 382.5 a11.25 11.25 0 1 0 22.5 0 a11.25 11.25 0 1 0 -22.5 0zM2081.25 337.5 a11.25 11.25 0 1 0 22.5 0 a11.25 11.25 0 1 0 -22.5 0zM1181.25 517.5 a11.25 11.25 0 1 0 22.5 0 a11.25 11.25 0 1 0 -22.5 0zM1811.25 472.5 a11.25 11.25 0 1 0 22.5 0 a11.25 11.25 0 1 0 -22.5 0zM2081.25 292.5 a11.25 11.25 0 1 0 22.5 0 a11.25 11.25 0 1 0 -22.5 0zM1541.25 517.5 a11.25 11.25 0 1 0 22.5 0 a11.25 11.25 0 1 0 -22.5 0zM2216.25 427.5 a11.25 11.25 0 1 0 22.5 0 a11.25 11.25 0 1 0 -22.5 0zM1091.25 517.5 a11.25 11.25 0 1 0 22.5 0 a11.25 11.25 0 1 0 -22.5 0zM2216.25 337.5 a11.25 11.25 0 1 0 22.5 0 a11.25 11.25 0 1 0 -22.5 0zM1901.25 337.5 a11.25 11.25 0 1 0 22.5 0 a11.25 11.25 0 1 0 -22.5 0zM1676.25 472.5 a11.25 11.25 0 1 0 22.5 0 a11.25 11.25 0 1 0 -22.5 0zM2486.25 292.5 a11.25 11.25 0 1 0 22.5 0 a11.25 11.25 0 1 0 -22.5 0z" fill="url(&quot;#SvgjsLinearGradient9086&quot;)"></path>
            <path d="M2227.5 1057.5L2272.5 1012.5L2317.5 1012.5L2362.5 1057.5L2407.5 1102.5M562.5 967.5L607.5 922.5L652.5 922.5L697.5 922.5L742.5 922.5L787.5 922.5M1957.5 1012.5L2002.5 1057.5L2047.5 1057.5L2092.5 1057.5L2137.5 1057.5L2182.5 1057.5L2227.5 1102.5L2272.5 1102.5L2317.5 1102.5L2362.5 1102.5L2407.5 1147.5L2452.5 1147.5L2497.5 1147.5L2542.5 1147.5L2587.5 1102.5L2632.5 1102.5L2677.5 1102.5L2722.5 1102.5L2767.5 1102.5L2812.5 1102.5M1777.5 1012.5L1822.5 1057.5L1867.5 1057.5L1912.5 1057.5L1957.5 1057.5L2002.5 1102.5L2047.5 1102.5L2092.5 1102.5L2137.5 1102.5L2182.5 1102.5L2227.5 1147.5L2272.5 1147.5L2317.5 1147.5M1417.5 1012.5L1462.5 1057.5L1507.5 1057.5M1102.5 967.5L1147.5 1012.5L1192.5 1012.5M967.5 922.5L1012.5 967.5L1057.5 1012.5M1552.5 1012.5L1597.5 1057.5L1642.5 1057.5L1687.5 1057.5M1732.5 1012.5L1777.5 1057.5L1822.5 1102.5L1867.5 1102.5L1912.5 1102.5L1957.5 1102.5L2002.5 1147.5L2047.5 1147.5L2092.5 1147.5L2137.5 1147.5M832.5 967.5L877.5 1012.5L922.5 1012.5L967.5 1012.5L1012.5 1012.5M877.5 967.5L922.5 967.5L967.5 967.5M-22.5 922.5L22.5 922.5L67.5 922.5L112.5 922.5L157.5 967.5L202.5 967.5L247.5 967.5L292.5 967.5L337.5 967.5L382.5 967.5L427.5 967.5L472.5 967.5L517.5 967.5L562.5 967.5L607.5 967.5L652.5 967.5L697.5 967.5L742.5 967.5L787.5 967.5L832.5 967.5L877.5 967.5L922.5 922.5L967.5 922.5L1012.5 922.5L1057.5 967.5L1102.5 967.5L1147.5 967.5L1192.5 967.5L1237.5 1012.5L1282.5 1012.5L1327.5 1012.5L1372.5 1012.5L1417.5 1012.5L1462.5 1012.5L1507.5 1012.5L1552.5 1012.5L1597.5 1012.5L1642.5 1012.5L1687.5 1012.5L1732.5 1012.5L1777.5 1012.5L1822.5 1012.5L1867.5 1012.5L1912.5 1012.5L1957.5 1012.5L2002.5 1012.5L2047.5 1012.5L2092.5 1012.5L2137.5 1012.5L2182.5 1012.5L2227.5 1057.5L2272.5 1057.5L2317.5 1057.5" stroke="url(&quot;#SvgjsLinearGradient9086&quot;)" stroke-width="7.5"></path>
            <path d="M2306.25 1057.5 a11.25 11.25 0 1 0 22.5 0 a11.25 11.25 0 1 0 -22.5 0zM2396.25 1102.5 a11.25 11.25 0 1 0 22.5 0 a11.25 11.25 0 1 0 -22.5 0zM776.25 922.5 a11.25 11.25 0 1 0 22.5 0 a11.25 11.25 0 1 0 -22.5 0zM2801.25 1102.5 a11.25 11.25 0 1 0 22.5 0 a11.25 11.25 0 1 0 -22.5 0zM2306.25 1147.5 a11.25 11.25 0 1 0 22.5 0 a11.25 11.25 0 1 0 -22.5 0zM1496.25 1057.5 a11.25 11.25 0 1 0 22.5 0 a11.25 11.25 0 1 0 -22.5 0zM1181.25 1012.5 a11.25 11.25 0 1 0 22.5 0 a11.25 11.25 0 1 0 -22.5 0zM1046.25 1012.5 a11.25 11.25 0 1 0 22.5 0 a11.25 11.25 0 1 0 -22.5 0zM1676.25 1057.5 a11.25 11.25 0 1 0 22.5 0 a11.25 11.25 0 1 0 -22.5 0zM2126.25 1147.5 a11.25 11.25 0 1 0 22.5 0 a11.25 11.25 0 1 0 -22.5 0zM1001.25 1012.5 a11.25 11.25 0 1 0 22.5 0 a11.25 11.25 0 1 0 -22.5 0zM956.25 967.5 a11.25 11.25 0 1 0 22.5 0 a11.25 11.25 0 1 0 -22.5 0z" fill="url(&quot;#SvgjsLinearGradient9086&quot;)"></path>
            <path d="M1462.5 427.5L1507.5 382.5L1552.5 382.5L1597.5 382.5L1642.5 337.5L1687.5 337.5M1012.5 472.5L1057.5 427.5L1102.5 427.5L1147.5 427.5L1192.5 427.5L1237.5 427.5L1282.5 427.5L1327.5 427.5L1372.5 427.5L1417.5 382.5L1462.5 382.5L1507.5 337.5M292.5 607.5L337.5 607.5M967.5 517.5L1012.5 517.5M922.5 517.5L967.5 472.5L1012.5 427.5L1057.5 382.5L1102.5 382.5M832.5 517.5L877.5 472.5L922.5 472.5M787.5 517.5L832.5 472.5M-22.5 607.5L22.5 607.5L67.5 607.5L112.5 607.5L157.5 607.5L202.5 607.5L247.5 607.5L292.5 607.5L337.5 562.5L382.5 562.5L427.5 562.5L472.5 562.5L517.5 562.5L562.5 562.5L607.5 517.5L652.5 517.5L697.5 517.5L742.5 517.5L787.5 517.5L832.5 517.5L877.5 517.5L922.5 517.5L967.5 517.5L1012.5 472.5L1057.5 472.5L1102.5 472.5L1147.5 472.5L1192.5 472.5L1237.5 472.5L1282.5 472.5L1327.5 472.5L1372.5 472.5L1417.5 427.5L1462.5 427.5L1507.5 427.5L1552.5 427.5L1597.5 427.5L1642.5 382.5L1687.5 382.5L1732.5 382.5" stroke="url(&quot;#SvgjsLinearGradient9086&quot;)" stroke-width="7.5"></path>
            <path d="M1721.25 382.5 a11.25 11.25 0 1 0 22.5 0 a11.25 11.25 0 1 0 -22.5 0zM1676.25 337.5 a11.25 11.25 0 1 0 22.5 0 a11.25 11.25 0 1 0 -22.5 0zM1496.25 337.5 a11.25 11.25 0 1 0 22.5 0 a11.25 11.25 0 1 0 -22.5 0zM326.25 607.5 a11.25 11.25 0 1 0 22.5 0 a11.25 11.25 0 1 0 -22.5 0zM1001.25 517.5 a11.25 11.25 0 1 0 22.5 0 a11.25 11.25 0 1 0 -22.5 0zM1091.25 382.5 a11.25 11.25 0 1 0 22.5 0 a11.25 11.25 0 1 0 -22.5 0zM911.25 472.5 a11.25 11.25 0 1 0 22.5 0 a11.25 11.25 0 1 0 -22.5 0zM821.25 472.5 a11.25 11.25 0 1 0 22.5 0 a11.25 11.25 0 1 0 -22.5 0z" fill="url(&quot;#SvgjsLinearGradient9086&quot;)"></path>
            <path d="M787.5 1057.5L832.5 1102.5L877.5 1102.5M1282.5 1057.5L1327.5 1102.5L1372.5 1102.5M2227.5 1282.5L2272.5 1237.5L2317.5 1237.5L2362.5 1237.5M562.5 1012.5L607.5 1057.5L652.5 1057.5L697.5 1057.5M2047.5 1237.5L2092.5 1192.5L2137.5 1192.5L2182.5 1192.5L2227.5 1192.5M1912.5 1192.5L1957.5 1147.5M1957.5 1192.5L2002.5 1192.5L2047.5 1192.5M1777.5 1192.5L1822.5 1237.5L1867.5 1237.5L1912.5 1237.5L1957.5 1237.5M1237.5 1057.5L1282.5 1102.5M1462.5 1147.5L1507.5 1102.5L1552.5 1102.5L1597.5 1102.5M1372.5 1057.5L1417.5 1057.5M382.5 1012.5L427.5 1057.5L472.5 1057.5L517.5 1057.5L562.5 1057.5L607.5 1102.5L652.5 1147.5M202.5 1012.5L247.5 1057.5L292.5 1057.5L337.5 1057.5L382.5 1057.5M-22.5 967.5L22.5 967.5L67.5 967.5L112.5 967.5L157.5 1012.5L202.5 1012.5L247.5 1012.5L292.5 1012.5L337.5 1012.5L382.5 1012.5L427.5 1012.5L472.5 1012.5L517.5 1012.5L562.5 1012.5L607.5 1012.5L652.5 1012.5L697.5 1012.5L742.5 1012.5L787.5 1057.5L832.5 1057.5L877.5 1057.5L922.5 1057.5L967.5 1057.5L1012.5 1057.5L1057.5 1057.5L1102.5 1057.5L1147.5 1057.5L1192.5 1057.5L1237.5 1057.5L1282.5 1057.5L1327.5 1057.5L1372.5 1057.5L1417.5 1102.5L1462.5 1147.5L1507.5 1147.5L1552.5 1147.5L1597.5 1192.5L1642.5 1192.5L1687.5 1192.5L1732.5 1192.5L1777.5 1192.5L1822.5 1192.5L1867.5 1192.5L1912.5 1192.5L1957.5 1192.5L2002.5 1237.5L2047.5 1237.5L2092.5 1237.5L2137.5 1282.5L2182.5 1282.5L2227.5 1282.5L2272.5 1282.5" stroke="url(&quot;#SvgjsLinearGradient9086&quot;)" stroke-width="7.5"></path>
            <path d="M2261.25 1282.5 a11.25 11.25 0 1 0 22.5 0 a11.25 11.25 0 1 0 -22.5 0zM866.25 1102.5 a11.25 11.25 0 1 0 22.5 0 a11.25 11.25 0 1 0 -22.5 0zM1361.25 1102.5 a11.25 11.25 0 1 0 22.5 0 a11.25 11.25 0 1 0 -22.5 0zM2351.25 1237.5 a11.25 11.25 0 1 0 22.5 0 a11.25 11.25 0 1 0 -22.5 0zM686.25 1057.5 a11.25 11.25 0 1 0 22.5 0 a11.25 11.25 0 1 0 -22.5 0zM2216.25 1192.5 a11.25 11.25 0 1 0 22.5 0 a11.25 11.25 0 1 0 -22.5 0zM1946.25 1147.5 a11.25 11.25 0 1 0 22.5 0 a11.25 11.25 0 1 0 -22.5 0zM2036.25 1192.5 a11.25 11.25 0 1 0 22.5 0 a11.25 11.25 0 1 0 -22.5 0zM1946.25 1237.5 a11.25 11.25 0 1 0 22.5 0 a11.25 11.25 0 1 0 -22.5 0zM1271.25 1102.5 a11.25 11.25 0 1 0 22.5 0 a11.25 11.25 0 1 0 -22.5 0zM1586.25 1102.5 a11.25 11.25 0 1 0 22.5 0 a11.25 11.25 0 1 0 -22.5 0zM1406.25 1057.5 a11.25 11.25 0 1 0 22.5 0 a11.25 11.25 0 1 0 -22.5 0zM641.25 1147.5 a11.25 11.25 0 1 0 22.5 0 a11.25 11.25 0 1 0 -22.5 0zM371.25 1057.5 a11.25 11.25 0 1 0 22.5 0 a11.25 11.25 0 1 0 -22.5 0z" fill="url(&quot;#SvgjsLinearGradient9086&quot;)"></path>
            <path d="M202.5 562.5L247.5 517.5L292.5 517.5M-22.5 562.5L22.5 562.5L67.5 562.5L112.5 562.5L157.5 562.5L202.5 562.5L247.5 562.5L292.5 562.5L337.5 517.5L382.5 517.5L427.5 517.5L472.5 517.5L517.5 517.5" stroke="url(&quot;#SvgjsLinearGradient9086&quot;)" stroke-width="7.5"></path>
            <path d="M506.25 517.5 a11.25 11.25 0 1 0 22.5 0 a11.25 11.25 0 1 0 -22.5 0zM281.25 517.5 a11.25 11.25 0 1 0 22.5 0 a11.25 11.25 0 1 0 -22.5 0z" fill="url(&quot;#SvgjsLinearGradient9086&quot;)"></path>
            <path d="M1192.5 1102.5L1237.5 1102.5M1642.5 1237.5L1687.5 1282.5L1732.5 1282.5L1777.5 1282.5M697.5 1192.5L742.5 1147.5L787.5 1147.5M1597.5 1237.5L1642.5 1282.5M517.5 1147.5L562.5 1102.5M1147.5 1102.5L1192.5 1147.5L1237.5 1192.5L1282.5 1192.5L1327.5 1192.5L1372.5 1192.5L1417.5 1192.5M1012.5 1147.5L1057.5 1147.5L1102.5 1147.5L1147.5 1147.5L1192.5 1192.5L1237.5 1237.5L1282.5 1237.5L1327.5 1237.5L1372.5 1237.5M1507.5 1192.5L1552.5 1237.5L1597.5 1282.5M427.5 1102.5L472.5 1102.5L517.5 1102.5M1462.5 1192.5L1507.5 1237.5L1552.5 1282.5M-22.5 1012.5L22.5 1012.5L67.5 1012.5L112.5 1012.5L157.5 1057.5L202.5 1102.5L247.5 1102.5L292.5 1102.5L337.5 1102.5L382.5 1102.5L427.5 1102.5L472.5 1147.5L517.5 1147.5L562.5 1147.5L607.5 1147.5L652.5 1192.5L697.5 1192.5L742.5 1192.5L787.5 1192.5L832.5 1192.5L877.5 1192.5L922.5 1192.5L967.5 1147.5L1012.5 1147.5L1057.5 1102.5L1102.5 1102.5L1147.5 1102.5L1192.5 1102.5L1237.5 1147.5L1282.5 1147.5L1327.5 1147.5L1372.5 1147.5L1417.5 1147.5L1462.5 1192.5L1507.5 1192.5L1552.5 1192.5L1597.5 1237.5L1642.5 1237.5L1687.5 1237.5L1732.5 1237.5" stroke="url(&quot;#SvgjsLinearGradient9086&quot;)" stroke-width="7.5"></path>
            <path d="M1721.25 1237.5 a11.25 11.25 0 1 0 22.5 0 a11.25 11.25 0 1 0 -22.5 0zM1226.25 1102.5 a11.25 11.25 0 1 0 22.5 0 a11.25 11.25 0 1 0 -22.5 0zM1766.25 1282.5 a11.25 11.25 0 1 0 22.5 0 a11.25 11.25 0 1 0 -22.5 0zM776.25 1147.5 a11.25 11.25 0 1 0 22.5 0 a11.25 11.25 0 1 0 -22.5 0zM1631.25 1282.5 a11.25 11.25 0 1 0 22.5 0 a11.25 11.25 0 1 0 -22.5 0zM551.25 1102.5 a11.25 11.25 0 1 0 22.5 0 a11.25 11.25 0 1 0 -22.5 0zM1406.25 1192.5 a11.25 11.25 0 1 0 22.5 0 a11.25 11.25 0 1 0 -22.5 0zM1361.25 1237.5 a11.25 11.25 0 1 0 22.5 0 a11.25 11.25 0 1 0 -22.5 0zM1586.25 1282.5 a11.25 11.25 0 1 0 22.5 0 a11.25 11.25 0 1 0 -22.5 0zM506.25 1102.5 a11.25 11.25 0 1 0 22.5 0 a11.25 11.25 0 1 0 -22.5 0zM1541.25 1282.5 a11.25 11.25 0 1 0 22.5 0 a11.25 11.25 0 1 0 -22.5 0z" fill="url(&quot;#SvgjsLinearGradient9086&quot;)"></path>
            <path d="M742.5 472.5L787.5 472.5M607.5 472.5L652.5 427.5M562.5 472.5L607.5 427.5M-22.5 517.5L22.5 517.5L67.5 517.5L112.5 517.5L157.5 517.5L202.5 472.5L247.5 472.5L292.5 472.5L337.5 472.5L382.5 472.5L427.5 472.5L472.5 472.5L517.5 472.5L562.5 472.5L607.5 472.5L652.5 472.5L697.5 472.5L742.5 472.5L787.5 427.5L832.5 427.5L877.5 427.5L922.5 427.5" stroke="url(&quot;#SvgjsLinearGradient9086&quot;)" stroke-width="7.5"></path>
            <path d="M911.25 427.5 a11.25 11.25 0 1 0 22.5 0 a11.25 11.25 0 1 0 -22.5 0zM776.25 472.5 a11.25 11.25 0 1 0 22.5 0 a11.25 11.25 0 1 0 -22.5 0zM641.25 427.5 a11.25 11.25 0 1 0 22.5 0 a11.25 11.25 0 1 0 -22.5 0zM596.25 427.5 a11.25 11.25 0 1 0 22.5 0 a11.25 11.25 0 1 0 -22.5 0z" fill="url(&quot;#SvgjsLinearGradient9086&quot;)"></path>
            <path d="M2002.5 1282.5L2047.5 1327.5L2092.5 1327.5L2137.5 1372.5L2182.5 1372.5L2227.5 1372.5L2272.5 1372.5L2317.5 1372.5L2362.5 1372.5L2407.5 1372.5L2452.5 1372.5L2497.5 1372.5L2542.5 1372.5L2587.5 1372.5L2632.5 1372.5L2677.5 1372.5L2722.5 1372.5L2767.5 1372.5L2812.5 1372.5M517.5 1192.5L562.5 1192.5L607.5 1192.5M382.5 1147.5L427.5 1192.5M1642.5 1327.5L1687.5 1372.5L1732.5 1372.5L1777.5 1372.5L1822.5 1372.5L1867.5 1372.5L1912.5 1372.5L1957.5 1372.5M1552.5 1327.5L1597.5 1372.5L1642.5 1372.5L1687.5 1417.5L1732.5 1417.5M967.5 1282.5L1012.5 1237.5L1057.5 1237.5L1102.5 1237.5L1147.5 1237.5L1192.5 1237.5M2317.5 1327.5L2362.5 1282.5L2407.5 1282.5L2452.5 1282.5L2497.5 1282.5L2542.5 1282.5L2587.5 1282.5L2632.5 1282.5L2677.5 1282.5L2722.5 1282.5L2767.5 1282.5L2812.5 1237.5M337.5 1147.5L382.5 1192.5M1327.5 1327.5L1372.5 1372.5L1417.5 1417.5L1462.5 1417.5L1507.5 1417.5L1552.5 1417.5L1597.5 1417.5L1642.5 1417.5L1687.5 1462.5L1732.5 1462.5M1372.5 1327.5L1417.5 1282.5L1462.5 1282.5L1507.5 1282.5M1822.5 1282.5L1867.5 1327.5L1912.5 1327.5L1957.5 1327.5L2002.5 1327.5L2047.5 1372.5L2092.5 1372.5M1507.5 1327.5L1552.5 1372.5M922.5 1282.5L967.5 1237.5L1012.5 1192.5L1057.5 1192.5L1102.5 1192.5L1147.5 1192.5M1147.5 1327.5L1192.5 1282.5L1237.5 1282.5L1282.5 1282.5L1327.5 1282.5L1372.5 1282.5M1417.5 1327.5L1462.5 1372.5L1507.5 1372.5M1282.5 1327.5L1327.5 1372.5L1372.5 1417.5L1417.5 1462.5L1462.5 1462.5M-22.5 1057.5L22.5 1057.5L67.5 1057.5L112.5 1102.5L157.5 1102.5L202.5 1147.5L247.5 1147.5L292.5 1147.5L337.5 1147.5L382.5 1147.5L427.5 1147.5L472.5 1192.5L517.5 1192.5L562.5 1237.5L607.5 1237.5L652.5 1237.5L697.5 1237.5L742.5 1237.5L787.5 1237.5L832.5 1237.5L877.5 1237.5L922.5 1282.5L967.5 1282.5L1012.5 1282.5L1057.5 1327.5L1102.5 1327.5L1147.5 1327.5L1192.5 1327.5L1237.5 1327.5L1282.5 1327.5L1327.5 1327.5L1372.5 1327.5L1417.5 1327.5L1462.5 1327.5L1507.5 1327.5L1552.5 1327.5L1597.5 1327.5L1642.5 1327.5L1687.5 1327.5L1732.5 1327.5L1777.5 1327.5L1822.5 1282.5L1867.5 1282.5L1912.5 1282.5L1957.5 1282.5L2002.5 1282.5L2047.5 1282.5L2092.5 1282.5L2137.5 1327.5L2182.5 1327.5L2227.5 1327.5L2272.5 1327.5L2317.5 1327.5L2362.5 1327.5L2407.5 1327.5L2452.5 1327.5L2497.5 1327.5L2542.5 1327.5L2587.5 1327.5L2632.5 1327.5L2677.5 1327.5L2722.5 1327.5L2767.5 1327.5L2812.5 1327.5" stroke="url(&quot;#SvgjsLinearGradient9086&quot;)" stroke-width="7.5"></path>
            <path d="M2801.25 1327.5 a11.25 11.25 0 1 0 22.5 0 a11.25 11.25 0 1 0 -22.5 0zM2801.25 1372.5 a11.25 11.25 0 1 0 22.5 0 a11.25 11.25 0 1 0 -22.5 0zM596.25 1192.5 a11.25 11.25 0 1 0 22.5 0 a11.25 11.25 0 1 0 -22.5 0zM416.25 1192.5 a11.25 11.25 0 1 0 22.5 0 a11.25 11.25 0 1 0 -22.5 0zM1946.25 1372.5 a11.25 11.25 0 1 0 22.5 0 a11.25 11.25 0 1 0 -22.5 0zM1721.25 1417.5 a11.25 11.25 0 1 0 22.5 0 a11.25 11.25 0 1 0 -22.5 0zM1181.25 1237.5 a11.25 11.25 0 1 0 22.5 0 a11.25 11.25 0 1 0 -22.5 0zM2801.25 1237.5 a11.25 11.25 0 1 0 22.5 0 a11.25 11.25 0 1 0 -22.5 0zM371.25 1192.5 a11.25 11.25 0 1 0 22.5 0 a11.25 11.25 0 1 0 -22.5 0zM1721.25 1462.5 a11.25 11.25 0 1 0 22.5 0 a11.25 11.25 0 1 0 -22.5 0zM1496.25 1282.5 a11.25 11.25 0 1 0 22.5 0 a11.25 11.25 0 1 0 -22.5 0zM2081.25 1372.5 a11.25 11.25 0 1 0 22.5 0 a11.25 11.25 0 1 0 -22.5 0zM1541.25 1372.5 a11.25 11.25 0 1 0 22.5 0 a11.25 11.25 0 1 0 -22.5 0zM1136.25 1192.5 a11.25 11.25 0 1 0 22.5 0 a11.25 11.25 0 1 0 -22.5 0zM1361.25 1282.5 a11.25 11.25 0 1 0 22.5 0 a11.25 11.25 0 1 0 -22.5 0zM1496.25 1372.5 a11.25 11.25 0 1 0 22.5 0 a11.25 11.25 0 1 0 -22.5 0zM1451.25 1462.5 a11.25 11.25 0 1 0 22.5 0 a11.25 11.25 0 1 0 -22.5 0z" fill="url(&quot;#SvgjsLinearGradient9086&quot;)"></path>
            <path d="M2137.5 202.5L2182.5 157.5L2227.5 157.5L2272.5 157.5L2317.5 157.5L2362.5 157.5L2407.5 157.5L2452.5 157.5L2497.5 157.5L2542.5 157.5M1147.5 337.5L1192.5 382.5L1237.5 382.5L1282.5 382.5L1327.5 382.5L1372.5 382.5L1417.5 337.5L1462.5 337.5M1912.5 202.5L1957.5 247.5L2002.5 247.5L2047.5 247.5L2092.5 247.5L2137.5 247.5L2182.5 247.5M922.5 337.5L967.5 382.5L1012.5 382.5M877.5 382.5L922.5 382.5M1462.5 247.5L1507.5 292.5L1552.5 292.5L1597.5 292.5M2092.5 202.5L2137.5 157.5L2182.5 112.5L2227.5 112.5L2272.5 112.5L2317.5 112.5M1777.5 247.5L1822.5 292.5L1867.5 292.5L1912.5 292.5M2047.5 202.5L2092.5 157.5L2137.5 112.5M652.5 382.5L697.5 382.5L742.5 382.5L787.5 337.5L832.5 337.5L877.5 337.5M1732.5 247.5L1777.5 292.5L1822.5 337.5M1642.5 247.5L1687.5 292.5L1732.5 292.5L1777.5 337.5M1282.5 292.5L1327.5 337.5L1372.5 337.5M-22.5 472.5L22.5 472.5L67.5 472.5L112.5 472.5L157.5 472.5L202.5 427.5L247.5 427.5L292.5 427.5L337.5 427.5L382.5 427.5L427.5 427.5L472.5 427.5L517.5 427.5L562.5 382.5L607.5 382.5L652.5 382.5L697.5 427.5L742.5 427.5L787.5 382.5L832.5 382.5L877.5 382.5L922.5 337.5L967.5 337.5L1012.5 337.5L1057.5 337.5L1102.5 337.5L1147.5 337.5L1192.5 337.5L1237.5 337.5L1282.5 292.5L1327.5 292.5L1372.5 292.5L1417.5 292.5L1462.5 247.5L1507.5 247.5L1552.5 247.5L1597.5 247.5L1642.5 247.5L1687.5 247.5L1732.5 247.5L1777.5 247.5L1822.5 247.5L1867.5 202.5L1912.5 202.5L1957.5 202.5L2002.5 202.5L2047.5 202.5L2092.5 202.5L2137.5 202.5L2182.5 202.5L2227.5 202.5L2272.5 202.5L2317.5 202.5" stroke="url(&quot;#SvgjsLinearGradient9086&quot;)" stroke-width="7.5"></path>
            <path d="M2306.25 202.5 a11.25 11.25 0 1 0 22.5 0 a11.25 11.25 0 1 0 -22.5 0zM2531.25 157.5 a11.25 11.25 0 1 0 22.5 0 a11.25 11.25 0 1 0 -22.5 0zM1451.25 337.5 a11.25 11.25 0 1 0 22.5 0 a11.25 11.25 0 1 0 -22.5 0zM2171.25 247.5 a11.25 11.25 0 1 0 22.5 0 a11.25 11.25 0 1 0 -22.5 0zM1001.25 382.5 a11.25 11.25 0 1 0 22.5 0 a11.25 11.25 0 1 0 -22.5 0zM911.25 382.5 a11.25 11.25 0 1 0 22.5 0 a11.25 11.25 0 1 0 -22.5 0zM1586.25 292.5 a11.25 11.25 0 1 0 22.5 0 a11.25 11.25 0 1 0 -22.5 0zM2306.25 112.5 a11.25 11.25 0 1 0 22.5 0 a11.25 11.25 0 1 0 -22.5 0zM1901.25 292.5 a11.25 11.25 0 1 0 22.5 0 a11.25 11.25 0 1 0 -22.5 0zM2126.25 112.5 a11.25 11.25 0 1 0 22.5 0 a11.25 11.25 0 1 0 -22.5 0zM866.25 337.5 a11.25 11.25 0 1 0 22.5 0 a11.25 11.25 0 1 0 -22.5 0zM1811.25 337.5 a11.25 11.25 0 1 0 22.5 0 a11.25 11.25 0 1 0 -22.5 0zM1766.25 337.5 a11.25 11.25 0 1 0 22.5 0 a11.25 11.25 0 1 0 -22.5 0zM1361.25 337.5 a11.25 11.25 0 1 0 22.5 0 a11.25 11.25 0 1 0 -22.5 0z" fill="url(&quot;#SvgjsLinearGradient9086&quot;)"></path>
            <path d="M742.5 1282.5L787.5 1327.5L832.5 1327.5M1057.5 1372.5L1102.5 1417.5L1147.5 1417.5L1192.5 1417.5L1237.5 1417.5L1282.5 1417.5M967.5 1327.5L1012.5 1372.5M382.5 1237.5L427.5 1282.5L472.5 1282.5L517.5 1282.5M697.5 1282.5L742.5 1327.5L787.5 1372.5L832.5 1372.5L877.5 1372.5L922.5 1372.5L967.5 1372.5L1012.5 1417.5L1057.5 1417.5L1102.5 1462.5M202.5 1192.5L247.5 1237.5L292.5 1237.5L337.5 1282.5L382.5 1282.5L427.5 1327.5L472.5 1327.5L517.5 1327.5L562.5 1327.5L607.5 1327.5L652.5 1327.5M22.5 1102.5L67.5 1147.5L112.5 1192.5L157.5 1192.5L202.5 1237.5L247.5 1282.5L292.5 1282.5M-22.5 1102.5L22.5 1102.5L67.5 1102.5L112.5 1147.5L157.5 1147.5L202.5 1192.5L247.5 1192.5L292.5 1192.5L337.5 1237.5L382.5 1237.5L427.5 1237.5L472.5 1237.5L517.5 1237.5L562.5 1282.5L607.5 1282.5L652.5 1282.5L697.5 1282.5L742.5 1282.5L787.5 1282.5L832.5 1282.5L877.5 1282.5L922.5 1327.5L967.5 1327.5L1012.5 1327.5L1057.5 1372.5L1102.5 1372.5L1147.5 1372.5L1192.5 1372.5L1237.5 1372.5" stroke="url(&quot;#SvgjsLinearGradient9086&quot;)" stroke-width="7.5"></path>
            <path d="M1226.25 1372.5 a11.25 11.25 0 1 0 22.5 0 a11.25 11.25 0 1 0 -22.5 0zM821.25 1327.5 a11.25 11.25 0 1 0 22.5 0 a11.25 11.25 0 1 0 -22.5 0zM1271.25 1417.5 a11.25 11.25 0 1 0 22.5 0 a11.25 11.25 0 1 0 -22.5 0zM1001.25 1372.5 a11.25 11.25 0 1 0 22.5 0 a11.25 11.25 0 1 0 -22.5 0zM506.25 1282.5 a11.25 11.25 0 1 0 22.5 0 a11.25 11.25 0 1 0 -22.5 0zM1091.25 1462.5 a11.25 11.25 0 1 0 22.5 0 a11.25 11.25 0 1 0 -22.5 0zM641.25 1327.5 a11.25 11.25 0 1 0 22.5 0 a11.25 11.25 0 1 0 -22.5 0zM281.25 1282.5 a11.25 11.25 0 1 0 22.5 0 a11.25 11.25 0 1 0 -22.5 0z" fill="url(&quot;#SvgjsLinearGradient9086&quot;)"></path>
            <path d="M1777.5 202.5L1822.5 157.5L1867.5 112.5M247.5 382.5L292.5 337.5L337.5 337.5L382.5 337.5L427.5 337.5L472.5 337.5L517.5 337.5L562.5 292.5L607.5 247.5L652.5 247.5L697.5 247.5L742.5 247.5M1012.5 292.5L1057.5 247.5L1102.5 202.5L1147.5 202.5L1192.5 202.5L1237.5 202.5M1597.5 202.5L1642.5 157.5L1687.5 157.5L1732.5 157.5M832.5 247.5L877.5 202.5L922.5 202.5L967.5 202.5L1012.5 202.5L1057.5 202.5L1102.5 157.5L1147.5 157.5L1192.5 157.5L1237.5 157.5M652.5 292.5L697.5 337.5L742.5 337.5M1552.5 202.5L1597.5 157.5L1642.5 112.5M1147.5 292.5L1192.5 247.5L1237.5 247.5M1912.5 157.5L1957.5 112.5L2002.5 112.5L2047.5 112.5L2092.5 112.5M922.5 292.5L967.5 247.5L1012.5 247.5M1372.5 247.5L1417.5 202.5L1462.5 157.5L1507.5 157.5L1552.5 157.5L1597.5 112.5M-22.5 427.5L22.5 427.5L67.5 427.5L112.5 427.5L157.5 427.5L202.5 382.5L247.5 382.5L292.5 382.5L337.5 382.5L382.5 382.5L427.5 382.5L472.5 382.5L517.5 382.5L562.5 337.5L607.5 337.5L652.5 292.5L697.5 292.5L742.5 292.5L787.5 247.5L832.5 247.5L877.5 247.5L922.5 292.5L967.5 292.5L1012.5 292.5L1057.5 292.5L1102.5 292.5L1147.5 292.5L1192.5 292.5L1237.5 292.5L1282.5 247.5L1327.5 247.5L1372.5 247.5L1417.5 247.5L1462.5 202.5L1507.5 202.5L1552.5 202.5L1597.5 202.5L1642.5 202.5L1687.5 202.5L1732.5 202.5L1777.5 202.5L1822.5 202.5L1867.5 157.5L1912.5 157.5L1957.5 157.5" stroke="url(&quot;#SvgjsLinearGradient9086&quot;)" stroke-width="7.5"></path>
            <path d="M1946.25 157.5 a11.25 11.25 0 1 0 22.5 0 a11.25 11.25 0 1 0 -22.5 0zM1856.25 112.5 a11.25 11.25 0 1 0 22.5 0 a11.25 11.25 0 1 0 -22.5 0zM731.25 247.5 a11.25 11.25 0 1 0 22.5 0 a11.25 11.25 0 1 0 -22.5 0zM1226.25 202.5 a11.25 11.25 0 1 0 22.5 0 a11.25 11.25 0 1 0 -22.5 0zM1721.25 157.5 a11.25 11.25 0 1 0 22.5 0 a11.25 11.25 0 1 0 -22.5 0zM1226.25 157.5 a11.25 11.25 0 1 0 22.5 0 a11.25 11.25 0 1 0 -22.5 0zM731.25 337.5 a11.25 11.25 0 1 0 22.5 0 a11.25 11.25 0 1 0 -22.5 0zM1631.25 112.5 a11.25 11.25 0 1 0 22.5 0 a11.25 11.25 0 1 0 -22.5 0zM1226.25 247.5 a11.25 11.25 0 1 0 22.5 0 a11.25 11.25 0 1 0 -22.5 0zM2081.25 112.5 a11.25 11.25 0 1 0 22.5 0 a11.25 11.25 0 1 0 -22.5 0zM1001.25 247.5 a11.25 11.25 0 1 0 22.5 0 a11.25 11.25 0 1 0 -22.5 0zM1586.25 112.5 a11.25 11.25 0 1 0 22.5 0 a11.25 11.25 0 1 0 -22.5 0z" fill="url(&quot;#SvgjsLinearGradient9086&quot;)"></path>
        </g>
    </g>
    <defs>
        <mask id="SvgjsMask9085">
            <rect width="2880" height="1556" fill="#ffffff"></rect>
        </mask>
        <linearGradient x1="0" y1="778" x2="2880" y2="778" gradientUnits="userSpaceOnUse" id="SvgjsLinearGradient9086">
            <stop stop-color="rgba(5, 8, 22, 1)" offset="0"></stop>
            <stop stop-color="rgba(84, 124, 171, 0.47)" offset="0.17"></stop>
            <stop stop-color="rgba(68, 119, 204, 0.53)" offset="0.35"></stop>
            <stop stop-color="rgba(68, 119, 204, 1)" offset="0.58"></stop>
            <stop stop-color="rgba(46, 121, 245, 1)" offset="1"></stop>
        </linearGradient>
        <mask id="SvgjsMask9087">
            <rect width="2880" height="1556" fill="white"></rect>
            <path d="M2491.87 607.5 a5.63 5.63 0 1 0 11.26 0 a5.63 5.63 0 1 0 -11.26 0zM2626.87 652.5 a5.63 5.63 0 1 0 11.26 0 a5.63 5.63 0 1 0 -11.26 0zM1366.87 652.5 a5.63 5.63 0 1 0 11.26 0 a5.63 5.63 0 1 0 -11.26 0zM1006.87 742.5 a5.63 5.63 0 1 0 11.26 0 a5.63 5.63 0 1 0 -11.26 0zM1771.87 787.5 a5.63 5.63 0 1 0 11.26 0 a5.63 5.63 0 1 0 -11.26 0zM2131.87 607.5 a5.63 5.63 0 1 0 11.26 0 a5.63 5.63 0 1 0 -11.26 0zM2266.87 697.5 a5.63 5.63 0 1 0 11.26 0 a5.63 5.63 0 1 0 -11.26 0zM2086.87 607.5 a5.63 5.63 0 1 0 11.26 0 a5.63 5.63 0 1 0 -11.26 0zM2266.87 607.5 a5.63 5.63 0 1 0 11.26 0 a5.63 5.63 0 1 0 -11.26 0zM1276.87 607.5 a5.63 5.63 0 1 0 11.26 0 a5.63 5.63 0 1 0 -11.26 0zM2491.87 652.5 a5.63 5.63 0 1 0 11.26 0 a5.63 5.63 0 1 0 -11.26 0zM2221.87 787.5 a5.63 5.63 0 1 0 11.26 0 a5.63 5.63 0 1 0 -11.26 0zM1186.87 787.5 a5.63 5.63 0 1 0 11.26 0 a5.63 5.63 0 1 0 -11.26 0zM601.87 787.5 a5.63 5.63 0 1 0 11.26 0 a5.63 5.63 0 1 0 -11.26 0zM1186.87 742.5 a5.63 5.63 0 1 0 11.26 0 a5.63 5.63 0 1 0 -11.26 0z" fill="black"></path>
            <path d="M2446.87 562.5 a5.63 5.63 0 1 0 11.26 0 a5.63 5.63 0 1 0 -11.26 0zM1006.87 607.5 a5.63 5.63 0 1 0 11.26 0 a5.63 5.63 0 1 0 -11.26 0zM1141.87 607.5 a5.63 5.63 0 1 0 11.26 0 a5.63 5.63 0 1 0 -11.26 0zM871.87 607.5 a5.63 5.63 0 1 0 11.26 0 a5.63 5.63 0 1 0 -11.26 0zM2491.87 517.5 a5.63 5.63 0 1 0 11.26 0 a5.63 5.63 0 1 0 -11.26 0zM2041.87 607.5 a5.63 5.63 0 1 0 11.26 0 a5.63 5.63 0 1 0 -11.26 0zM1861.87 562.5 a5.63 5.63 0 1 0 11.26 0 a5.63 5.63 0 1 0 -11.26 0zM1591.87 607.5 a5.63 5.63 0 1 0 11.26 0 a5.63 5.63 0 1 0 -11.26 0zM1231.87 607.5 a5.63 5.63 0 1 0 11.26 0 a5.63 5.63 0 1 0 -11.26 0zM2041.87 472.5 a5.63 5.63 0 1 0 11.26 0 a5.63 5.63 0 1 0 -11.26 0zM1726.87 517.5 a5.63 5.63 0 1 0 11.26 0 a5.63 5.63 0 1 0 -11.26 0zM2176.87 517.5 a5.63 5.63 0 1 0 11.26 0 a5.63 5.63 0 1 0 -11.26 0zM1501.87 607.5 a5.63 5.63 0 1 0 11.26 0 a5.63 5.63 0 1 0 -11.26 0zM2176.87 472.5 a5.63 5.63 0 1 0 11.26 0 a5.63 5.63 0 1 0 -11.26 0zM2581.87 517.5 a5.63 5.63 0 1 0 11.26 0 a5.63 5.63 0 1 0 -11.26 0z" fill="black"></path>
            <path d="M2221.87 967.5 a5.63 5.63 0 1 0 11.26 0 a5.63 5.63 0 1 0 -11.26 0zM1861.87 922.5 a5.63 5.63 0 1 0 11.26 0 a5.63 5.63 0 1 0 -11.26 0zM1726.87 877.5 a5.63 5.63 0 1 0 11.26 0 a5.63 5.63 0 1 0 -11.26 0zM1411.87 877.5 a5.63 5.63 0 1 0 11.26 0 a5.63 5.63 0 1 0 -11.26 0zM2221.87 922.5 a5.63 5.63 0 1 0 11.26 0 a5.63 5.63 0 1 0 -11.26 0zM1231.87 832.5 a5.63 5.63 0 1 0 11.26 0 a5.63 5.63 0 1 0 -11.26 0zM1591.87 877.5 a5.63 5.63 0 1 0 11.26 0 a5.63 5.63 0 1 0 -11.26 0zM2446.87 877.5 a5.63 5.63 0 1 0 11.26 0 a5.63 5.63 0 1 0 -11.26 0zM241.87 877.5 a5.63 5.63 0 1 0 11.26 0 a5.63 5.63 0 1 0 -11.26 0zM871.87 922.5 a5.63 5.63 0 1 0 11.26 0 a5.63 5.63 0 1 0 -11.26 0zM871.87 832.5 a5.63 5.63 0 1 0 11.26 0 a5.63 5.63 0 1 0 -11.26 0zM1276.87 922.5 a5.63 5.63 0 1 0 11.26 0 a5.63 5.63 0 1 0 -11.26 0zM826.87 832.5 a5.63 5.63 0 1 0 11.26 0 a5.63 5.63 0 1 0 -11.26 0z" fill="black"></path>
            <path d="M781.87 607.5 a5.63 5.63 0 1 0 11.26 0 a5.63 5.63 0 1 0 -11.26 0zM691.87 652.5 a5.63 5.63 0 1 0 11.26 0 a5.63 5.63 0 1 0 -11.26 0zM646.87 652.5 a5.63 5.63 0 1 0 11.26 0 a5.63 5.63 0 1 0 -11.26 0z" fill="black"></path>
            <path d="M511.87 922.5 a5.63 5.63 0 1 0 11.26 0 a5.63 5.63 0 1 0 -11.26 0zM421.87 877.5 a5.63 5.63 0 1 0 11.26 0 a5.63 5.63 0 1 0 -11.26 0zM151.87 877.5 a5.63 5.63 0 1 0 11.26 0 a5.63 5.63 0 1 0 -11.26 0z" fill="black"></path>
            <path d="M2221.87 382.5 a5.63 5.63 0 1 0 11.26 0 a5.63 5.63 0 1 0 -11.26 0zM2086.87 337.5 a5.63 5.63 0 1 0 11.26 0 a5.63 5.63 0 1 0 -11.26 0zM1186.87 517.5 a5.63 5.63 0 1 0 11.26 0 a5.63 5.63 0 1 0 -11.26 0zM1816.87 472.5 a5.63 5.63 0 1 0 11.26 0 a5.63 5.63 0 1 0 -11.26 0zM2086.87 292.5 a5.63 5.63 0 1 0 11.26 0 a5.63 5.63 0 1 0 -11.26 0zM1546.87 517.5 a5.63 5.63 0 1 0 11.26 0 a5.63 5.63 0 1 0 -11.26 0zM2221.87 427.5 a5.63 5.63 0 1 0 11.26 0 a5.63 5.63 0 1 0 -11.26 0zM1096.87 517.5 a5.63 5.63 0 1 0 11.26 0 a5.63 5.63 0 1 0 -11.26 0zM2221.87 337.5 a5.63 5.63 0 1 0 11.26 0 a5.63 5.63 0 1 0 -11.26 0zM1906.87 337.5 a5.63 5.63 0 1 0 11.26 0 a5.63 5.63 0 1 0 -11.26 0zM1681.87 472.5 a5.63 5.63 0 1 0 11.26 0 a5.63 5.63 0 1 0 -11.26 0zM2491.87 292.5 a5.63 5.63 0 1 0 11.26 0 a5.63 5.63 0 1 0 -11.26 0z" fill="black"></path>
            <path d="M2311.87 1057.5 a5.63 5.63 0 1 0 11.26 0 a5.63 5.63 0 1 0 -11.26 0zM2401.87 1102.5 a5.63 5.63 0 1 0 11.26 0 a5.63 5.63 0 1 0 -11.26 0zM781.87 922.5 a5.63 5.63 0 1 0 11.26 0 a5.63 5.63 0 1 0 -11.26 0zM2806.87 1102.5 a5.63 5.63 0 1 0 11.26 0 a5.63 5.63 0 1 0 -11.26 0zM2311.87 1147.5 a5.63 5.63 0 1 0 11.26 0 a5.63 5.63 0 1 0 -11.26 0zM1501.87 1057.5 a5.63 5.63 0 1 0 11.26 0 a5.63 5.63 0 1 0 -11.26 0zM1186.87 1012.5 a5.63 5.63 0 1 0 11.26 0 a5.63 5.63 0 1 0 -11.26 0zM1051.87 1012.5 a5.63 5.63 0 1 0 11.26 0 a5.63 5.63 0 1 0 -11.26 0zM1681.87 1057.5 a5.63 5.63 0 1 0 11.26 0 a5.63 5.63 0 1 0 -11.26 0zM2131.87 1147.5 a5.63 5.63 0 1 0 11.26 0 a5.63 5.63 0 1 0 -11.26 0zM1006.87 1012.5 a5.63 5.63 0 1 0 11.26 0 a5.63 5.63 0 1 0 -11.26 0zM961.87 967.5 a5.63 5.63 0 1 0 11.26 0 a5.63 5.63 0 1 0 -11.26 0z" fill="black"></path>
            <path d="M1726.87 382.5 a5.63 5.63 0 1 0 11.26 0 a5.63 5.63 0 1 0 -11.26 0zM1681.87 337.5 a5.63 5.63 0 1 0 11.26 0 a5.63 5.63 0 1 0 -11.26 0zM1501.87 337.5 a5.63 5.63 0 1 0 11.26 0 a5.63 5.63 0 1 0 -11.26 0zM331.87 607.5 a5.63 5.63 0 1 0 11.26 0 a5.63 5.63 0 1 0 -11.26 0zM1006.87 517.5 a5.63 5.63 0 1 0 11.26 0 a5.63 5.63 0 1 0 -11.26 0zM1096.87 382.5 a5.63 5.63 0 1 0 11.26 0 a5.63 5.63 0 1 0 -11.26 0zM916.87 472.5 a5.63 5.63 0 1 0 11.26 0 a5.63 5.63 0 1 0 -11.26 0zM826.87 472.5 a5.63 5.63 0 1 0 11.26 0 a5.63 5.63 0 1 0 -11.26 0z" fill="black"></path>
            <path d="M2266.87 1282.5 a5.63 5.63 0 1 0 11.26 0 a5.63 5.63 0 1 0 -11.26 0zM871.87 1102.5 a5.63 5.63 0 1 0 11.26 0 a5.63 5.63 0 1 0 -11.26 0zM1366.87 1102.5 a5.63 5.63 0 1 0 11.26 0 a5.63 5.63 0 1 0 -11.26 0zM2356.87 1237.5 a5.63 5.63 0 1 0 11.26 0 a5.63 5.63 0 1 0 -11.26 0zM691.87 1057.5 a5.63 5.63 0 1 0 11.26 0 a5.63 5.63 0 1 0 -11.26 0zM2221.87 1192.5 a5.63 5.63 0 1 0 11.26 0 a5.63 5.63 0 1 0 -11.26 0zM1951.87 1147.5 a5.63 5.63 0 1 0 11.26 0 a5.63 5.63 0 1 0 -11.26 0zM2041.87 1192.5 a5.63 5.63 0 1 0 11.26 0 a5.63 5.63 0 1 0 -11.26 0zM1951.87 1237.5 a5.63 5.63 0 1 0 11.26 0 a5.63 5.63 0 1 0 -11.26 0zM1276.87 1102.5 a5.63 5.63 0 1 0 11.26 0 a5.63 5.63 0 1 0 -11.26 0zM1591.87 1102.5 a5.63 5.63 0 1 0 11.26 0 a5.63 5.63 0 1 0 -11.26 0zM1411.87 1057.5 a5.63 5.63 0 1 0 11.26 0 a5.63 5.63 0 1 0 -11.26 0zM646.87 1147.5 a5.63 5.63 0 1 0 11.26 0 a5.63 5.63 0 1 0 -11.26 0zM376.87 1057.5 a5.63 5.63 0 1 0 11.26 0 a5.63 5.63 0 1 0 -11.26 0z" fill="black"></path>
            <path d="M511.87 517.5 a5.63 5.63 0 1 0 11.26 0 a5.63 5.63 0 1 0 -11.26 0zM286.87 517.5 a5.63 5.63 0 1 0 11.26 0 a5.63 5.63 0 1 0 -11.26 0z" fill="black"></path>
            <path d="M1726.87 1237.5 a5.63 5.63 0 1 0 11.26 0 a5.63 5.63 0 1 0 -11.26 0zM1231.87 1102.5 a5.63 5.63 0 1 0 11.26 0 a5.63 5.63 0 1 0 -11.26 0zM1771.87 1282.5 a5.63 5.63 0 1 0 11.26 0 a5.63 5.63 0 1 0 -11.26 0zM781.87 1147.5 a5.63 5.63 0 1 0 11.26 0 a5.63 5.63 0 1 0 -11.26 0zM1636.87 1282.5 a5.63 5.63 0 1 0 11.26 0 a5.63 5.63 0 1 0 -11.26 0zM556.87 1102.5 a5.63 5.63 0 1 0 11.26 0 a5.63 5.63 0 1 0 -11.26 0zM1411.87 1192.5 a5.63 5.63 0 1 0 11.26 0 a5.63 5.63 0 1 0 -11.26 0zM1366.87 1237.5 a5.63 5.63 0 1 0 11.26 0 a5.63 5.63 0 1 0 -11.26 0zM1591.87 1282.5 a5.63 5.63 0 1 0 11.26 0 a5.63 5.63 0 1 0 -11.26 0zM511.87 1102.5 a5.63 5.63 0 1 0 11.26 0 a5.63 5.63 0 1 0 -11.26 0zM1546.87 1282.5 a5.63 5.63 0 1 0 11.26 0 a5.63 5.63 0 1 0 -11.26 0z" fill="black"></path>
            <path d="M916.87 427.5 a5.63 5.63 0 1 0 11.26 0 a5.63 5.63 0 1 0 -11.26 0zM781.87 472.5 a5.63 5.63 0 1 0 11.26 0 a5.63 5.63 0 1 0 -11.26 0zM646.87 427.5 a5.63 5.63 0 1 0 11.26 0 a5.63 5.63 0 1 0 -11.26 0zM601.87 427.5 a5.63 5.63 0 1 0 11.26 0 a5.63 5.63 0 1 0 -11.26 0z" fill="black"></path>
            <path d="M2806.87 1327.5 a5.63 5.63 0 1 0 11.26 0 a5.63 5.63 0 1 0 -11.26 0zM2806.87 1372.5 a5.63 5.63 0 1 0 11.26 0 a5.63 5.63 0 1 0 -11.26 0zM601.87 1192.5 a5.63 5.63 0 1 0 11.26 0 a5.63 5.63 0 1 0 -11.26 0zM421.87 1192.5 a5.63 5.63 0 1 0 11.26 0 a5.63 5.63 0 1 0 -11.26 0zM1951.87 1372.5 a5.63 5.63 0 1 0 11.26 0 a5.63 5.63 0 1 0 -11.26 0zM1726.87 1417.5 a5.63 5.63 0 1 0 11.26 0 a5.63 5.63 0 1 0 -11.26 0zM1186.87 1237.5 a5.63 5.63 0 1 0 11.26 0 a5.63 5.63 0 1 0 -11.26 0zM2806.87 1237.5 a5.63 5.63 0 1 0 11.26 0 a5.63 5.63 0 1 0 -11.26 0zM376.87 1192.5 a5.63 5.63 0 1 0 11.26 0 a5.63 5.63 0 1 0 -11.26 0zM1726.87 1462.5 a5.63 5.63 0 1 0 11.26 0 a5.63 5.63 0 1 0 -11.26 0zM1501.87 1282.5 a5.63 5.63 0 1 0 11.26 0 a5.63 5.63 0 1 0 -11.26 0zM2086.87 1372.5 a5.63 5.63 0 1 0 11.26 0 a5.63 5.63 0 1 0 -11.26 0zM1546.87 1372.5 a5.63 5.63 0 1 0 11.26 0 a5.63 5.63 0 1 0 -11.26 0zM1141.87 1192.5 a5.63 5.63 0 1 0 11.26 0 a5.63 5.63 0 1 0 -11.26 0zM1366.87 1282.5 a5.63 5.63 0 1 0 11.26 0 a5.63 5.63 0 1 0 -11.26 0zM1501.87 1372.5 a5.63 5.63 0 1 0 11.26 0 a5.63 5.63 0 1 0 -11.26 0zM1456.87 1462.5 a5.63 5.63 0 1 0 11.26 0 a5.63 5.63 0 1 0 -11.26 0z" fill="black"></path>
            <path d="M2311.87 202.5 a5.63 5.63 0 1 0 11.26 0 a5.63 5.63 0 1 0 -11.26 0zM2536.87 157.5 a5.63 5.63 0 1 0 11.26 0 a5.63 5.63 0 1 0 -11.26 0zM1456.87 337.5 a5.63 5.63 0 1 0 11.26 0 a5.63 5.63 0 1 0 -11.26 0zM2176.87 247.5 a5.63 5.63 0 1 0 11.26 0 a5.63 5.63 0 1 0 -11.26 0zM1006.87 382.5 a5.63 5.63 0 1 0 11.26 0 a5.63 5.63 0 1 0 -11.26 0zM916.87 382.5 a5.63 5.63 0 1 0 11.26 0 a5.63 5.63 0 1 0 -11.26 0zM1591.87 292.5 a5.63 5.63 0 1 0 11.26 0 a5.63 5.63 0 1 0 -11.26 0zM2311.87 112.5 a5.63 5.63 0 1 0 11.26 0 a5.63 5.63 0 1 0 -11.26 0zM1906.87 292.5 a5.63 5.63 0 1 0 11.26 0 a5.63 5.63 0 1 0 -11.26 0zM2131.87 112.5 a5.63 5.63 0 1 0 11.26 0 a5.63 5.63 0 1 0 -11.26 0zM871.87 337.5 a5.63 5.63 0 1 0 11.26 0 a5.63 5.63 0 1 0 -11.26 0zM1816.87 337.5 a5.63 5.63 0 1 0 11.26 0 a5.63 5.63 0 1 0 -11.26 0zM1771.87 337.5 a5.63 5.63 0 1 0 11.26 0 a5.63 5.63 0 1 0 -11.26 0zM1366.87 337.5 a5.63 5.63 0 1 0 11.26 0 a5.63 5.63 0 1 0 -11.26 0z" fill="black"></path>
            <path d="M1231.87 1372.5 a5.63 5.63 0 1 0 11.26 0 a5.63 5.63 0 1 0 -11.26 0zM826.87 1327.5 a5.63 5.63 0 1 0 11.26 0 a5.63 5.63 0 1 0 -11.26 0zM1276.87 1417.5 a5.63 5.63 0 1 0 11.26 0 a5.63 5.63 0 1 0 -11.26 0zM1006.87 1372.5 a5.63 5.63 0 1 0 11.26 0 a5.63 5.63 0 1 0 -11.26 0zM511.87 1282.5 a5.63 5.63 0 1 0 11.26 0 a5.63 5.63 0 1 0 -11.26 0zM1096.87 1462.5 a5.63 5.63 0 1 0 11.26 0 a5.63 5.63 0 1 0 -11.26 0zM646.87 1327.5 a5.63 5.63 0 1 0 11.26 0 a5.63 5.63 0 1 0 -11.26 0zM286.87 1282.5 a5.63 5.63 0 1 0 11.26 0 a5.63 5.63 0 1 0 -11.26 0z" fill="black"></path>
            <path d="M1951.87 157.5 a5.63 5.63 0 1 0 11.26 0 a5.63 5.63 0 1 0 -11.26 0zM1861.87 112.5 a5.63 5.63 0 1 0 11.26 0 a5.63 5.63 0 1 0 -11.26 0zM736.87 247.5 a5.63 5.63 0 1 0 11.26 0 a5.63 5.63 0 1 0 -11.26 0zM1231.87 202.5 a5.63 5.63 0 1 0 11.26 0 a5.63 5.63 0 1 0 -11.26 0zM1726.87 157.5 a5.63 5.63 0 1 0 11.26 0 a5.63 5.63 0 1 0 -11.26 0zM1231.87 157.5 a5.63 5.63 0 1 0 11.26 0 a5.63 5.63 0 1 0 -11.26 0zM736.87 337.5 a5.63 5.63 0 1 0 11.26 0 a5.63 5.63 0 1 0 -11.26 0zM1636.87 112.5 a5.63 5.63 0 1 0 11.26 0 a5.63 5.63 0 1 0 -11.26 0zM1231.87 247.5 a5.63 5.63 0 1 0 11.26 0 a5.63 5.63 0 1 0 -11.26 0zM2086.87 112.5 a5.63 5.63 0 1 0 11.26 0 a5.63 5.63 0 1 0 -11.26 0zM1006.87 247.5 a5.63 5.63 0 1 0 11.26 0 a5.63 5.63 0 1 0 -11.26 0zM1591.87 112.5 a5.63 5.63 0 1 0 11.26 0 a5.63 5.63 0 1 0 -11.26 0z" fill="black"></path>
        </mask>
    </defs>
</svg>