<svg width="119" height="112" viewBox="0 0 119 112" fill="none" xmlns="http://www.w3.org/2000/svg">
<path d="M101.57 0.10144H0V101.671H101.57V0.10144Z" fill="#026DF0"/>
<path d="M118.845 35.6123H23.8126V111.814H118.845V35.6123Z" fill="#C6E3E5"/>
<path d="M116.528 37.9725H26.4203V110.129H116.528V37.9725Z" fill="#026DF0"/>
<path d="M112.471 43.0302H30.4764V105.745H112.471V43.0302Z" fill="#C6E3E5"/>
<path d="M54.9736 53.5461C57.7381 53.5461 60.0731 53.8824 61.9784 54.5548C63.9211 55.2273 65.4715 56.3294 66.6297 57.8611C67.8251 59.3929 68.6844 61.429 69.2074 63.9693C69.7678 66.5098 70.048 69.6479 70.048 73.3839C70.048 77.1196 69.7678 80.2577 69.2074 82.7984C68.6844 85.339 67.8251 87.3746 66.6297 88.9066C65.4715 90.4386 63.9211 91.5404 61.9784 92.2129C60.0731 92.8853 57.7381 93.2216 54.9736 93.2216C52.3211 93.2216 49.8554 93.1655 47.5765 93.0535C45.335 92.9785 43.2055 92.8664 41.1881 92.7172L43.3176 88.6824C44.8867 88.7196 46.6239 88.7756 48.5292 88.8506C50.4718 88.8877 52.62 88.9066 54.9736 88.9066C57.4393 88.9066 59.4007 88.4394 60.8577 87.5056C62.3147 86.5341 63.342 84.9279 63.9398 82.6863C64.5749 80.4076 64.8925 77.3066 64.8925 73.3839C64.8925 69.4611 64.5749 66.379 63.9398 64.1374C63.342 61.8586 62.3147 60.2334 60.8577 59.2621C59.4007 58.2908 57.4393 57.8051 54.9736 57.8051C52.6573 57.8051 50.5652 57.8238 48.6973 57.8611C46.8666 57.8985 45.0734 57.9359 43.3176 57.9732L41.1881 54.0505C43.2055 53.9011 45.335 53.789 47.5765 53.7143C49.8554 53.6022 52.3211 53.5461 54.9736 53.5461ZM46.1195 54.0505V92.7172H41.1881V54.0505H46.1195ZM104.795 54.0505L93.5314 70.0775C93.1951 70.563 92.8589 70.9931 92.5227 71.3665C92.2243 71.7027 91.8502 72.095 91.4019 72.5433V72.6554C91.888 73.1037 92.3363 73.552 92.7468 74.0003C93.158 74.4486 93.5131 74.8969 93.8115 75.3452L105.58 92.7172H100.032L86.3024 72.4873L99.4154 54.0505H104.795ZM83.2763 54.0505V66.1548C83.2763 67.2756 83.2202 68.3403 83.1082 69.349C82.9961 70.3578 82.828 71.4036 82.6038 72.4873C82.7909 73.5331 82.9401 74.5796 83.0521 75.6254C83.202 76.6713 83.2763 77.68 83.2763 78.6515V92.7172H78.4009V54.0505H83.2763ZM88.9922 70.582V74.5607H81.5391V70.582H88.9922Z" fill="#026DF0"/>
</svg>
